<svg xmlns="http://www.w3.org/2000/svg" xmlns:xlink="http://www.w3.org/1999/xlink" viewBox="0 0 352 408"><defs><style>.cls-1,.cls-4{fill:none;}.cls-1{opacity:0.22;}.cls-2,.cls-6{fill:#fff;}.cls-2,.cls-4{stroke:#4d4d4d;stroke-miterlimit:10;}.cls-2{stroke-width:5px;}.cls-3{clip-path:url(#clip-path);}.cls-4{opacity:0.65;}.cls-5{opacity:0.41;}.cls-7{font-size:84px;font-family:Monaco;}</style><clipPath id="clip-path"><polygon class="cls-1" points="176 5 2.79 105 2.79 305 176 405 349.2 305 349.2 105 176 5"/></clipPath></defs><g id="Layer_3" data-name="Layer 3"><polygon class="cls-2" points="176 5 2.79 105 2.79 305 176 405 349.2 305 349.2 105 176 5"/></g><g id="Layer_1" data-name="Layer 1"><g class="cls-3"><polygon class="cls-4" points="-24 205 76 378.2 276 378.2 376 205 276 31.8 76 31.8 -24 205"/><polygon class="cls-4" points="-2.56 204.29 87.55 360.36 267.75 360.36 357.86 204.29 267.75 48.23 87.55 48.23 -2.56 204.29"/><polygon class="cls-4" points="16.22 204.29 96.94 344.09 258.36 344.09 339.08 204.29 258.36 64.49 96.94 64.49 16.22 204.29"/><polygon class="cls-4" points="32.2 204.29 104.93 330.25 250.37 330.25 323.1 204.29 250.37 78.33 104.93 78.33 32.2 204.29"/><polygon class="cls-4" points="48.32 204.29 112.99 316.29 242.31 316.29 306.98 204.29 242.31 92.29 112.99 92.29 48.32 204.29"/><polygon class="cls-4" points="61.12 204.29 119.39 305.21 235.91 305.21 294.18 204.29 235.91 103.38 119.39 103.38 61.12 204.29"/><polygon class="cls-4" points="73.27 204.29 125.46 294.69 229.84 294.69 282.03 204.29 229.84 113.89 125.46 113.89 73.27 204.29"/><polygon class="cls-4" points="83.6 204.29 130.62 285.74 224.68 285.74 271.7 204.29 224.68 122.84 130.62 122.84 83.6 204.29"/><polygon class="cls-4" points="93.18 205 134.59 276.73 217.41 276.73 258.82 205 217.41 133.27 134.59 133.27 93.18 205"/><polygon class="cls-4" points="101.38 205 138.69 269.63 213.31 269.63 250.63 205 213.31 140.37 138.69 140.37 101.38 205"/><polygon class="cls-4" points="109.15 205 142.58 262.89 209.42 262.89 242.85 205 209.42 147.11 142.58 147.11 109.15 205"/><polygon class="cls-4" points="115.77 205 145.88 257.16 206.12 257.16 236.23 205 206.12 152.84 145.88 152.84 115.77 205"/><polygon class="cls-4" points="122.44 205 149.22 251.38 202.78 251.38 229.56 205 202.78 158.62 149.22 158.62 122.44 205"/><polygon class="cls-4" points="127.75 205 151.87 246.79 200.13 246.79 224.25 205 200.13 163.21 151.87 163.21 127.75 205"/><polygon class="cls-4" points="132.77 205 154.39 242.44 197.61 242.44 219.23 205 197.61 167.56 154.39 167.56 132.77 205"/><polygon class="cls-4" points="137.05 205 156.53 238.73 195.47 238.73 214.95 205 195.47 171.27 156.53 171.27 137.05 205"/><polygon class="cls-4" points="142.87 205 159.44 233.69 192.56 233.69 209.13 205 192.56 176.31 159.44 176.31 142.87 205"/><polygon class="cls-4" points="146.42 204.88 161.35 230.73 191.2 230.73 206.12 204.88 191.2 179.03 161.35 179.03 146.42 204.88"/><polygon class="cls-4" points="149.53 204.88 162.9 228.04 189.64 228.04 203.01 204.88 189.64 181.73 162.9 181.73 149.53 204.88"/><polygon class="cls-4" points="152.18 204.88 164.23 225.75 188.32 225.75 200.37 204.88 188.32 184.02 164.23 184.02 152.18 204.88"/><polygon class="cls-4" points="154.85 204.88 165.56 223.44 186.98 223.44 197.69 204.88 186.98 186.33 165.56 186.33 154.85 204.88"/><polygon class="cls-4" points="156.97 204.88 166.62 221.6 185.92 221.6 195.57 204.88 185.92 188.17 166.62 188.17 156.97 204.88"/><polygon class="cls-4" points="158.98 204.88 167.63 219.86 184.92 219.86 193.56 204.88 184.92 189.91 167.63 189.91 158.98 204.88"/><polygon class="cls-4" points="160.69 204.88 168.48 218.38 184.06 218.38 191.85 204.88 184.06 191.39 168.48 191.39 160.69 204.88"/><polygon class="cls-4" points="162.28 205 169.14 216.88 182.86 216.88 189.72 205 182.86 193.12 169.14 193.12 162.28 205"/><polygon class="cls-4" points="163.64 205 169.82 215.71 182.18 215.71 188.36 205 182.18 194.29 169.82 194.29 163.64 205"/><polygon class="cls-4" points="164.93 205 170.46 214.59 181.54 214.59 187.07 205 181.54 195.41 170.46 195.41 164.93 205"/><polygon class="cls-4" points="166.02 205 171.01 213.64 180.99 213.64 185.98 205 180.99 196.36 171.01 196.36 166.02 205"/><polygon class="cls-4" points="167.13 205 171.56 212.68 180.44 212.68 184.87 205 180.44 197.32 171.56 197.32 167.13 205"/><polygon class="cls-4" points="168.01 205 172 211.92 180 211.92 183.99 205 180 198.08 172 198.08 168.01 205"/><polygon class="cls-4" points="168.84 205 172.42 211.2 179.58 211.2 183.16 205 179.58 198.8 172.42 198.8 168.84 205"/><polygon class="cls-4" points="169.55 205 172.77 210.59 179.23 210.59 182.45 205 179.23 199.41 172.77 199.41 169.55 205"/><polygon class="cls-4" points="-11.94 136.59 22.79 333.56 210.73 401.96 363.94 273.4 329.21 76.44 141.27 8.04 -11.94 136.59"/><polygon class="cls-4" points="8.46 143.26 39.75 320.73 209.08 382.37 347.13 266.54 315.84 89.07 146.5 27.43 8.46 143.26"/><polygon class="cls-4" points="26.1 149.69 54.13 308.66 205.82 363.87 329.48 260.11 301.45 101.14 149.76 45.93 26.1 149.69"/><polygon class="cls-4" points="41.12 155.15 66.37 298.39 203.05 348.14 314.47 254.65 289.21 111.41 152.54 61.66 41.12 155.15"/><polygon class="cls-4" points="56.27 160.67 78.72 288.03 200.25 332.26 299.32 249.13 276.86 121.77 155.34 77.54 56.27 160.67"/><polygon class="cls-4" points="68.29 165.04 88.53 279.8 198.03 319.66 287.29 244.75 267.06 130 157.56 90.14 68.29 165.04"/><polygon class="cls-4" points="79.7 169.2 97.83 272 195.92 307.7 275.88 240.6 257.75 137.8 159.67 102.1 79.7 169.2"/><polygon class="cls-4" points="89.41 172.73 105.74 265.36 194.12 297.52 266.17 237.07 249.84 144.44 161.46 112.28 89.41 172.73"/><polygon class="cls-4" points="98.17 176.67 112.55 258.24 190.38 286.56 253.83 233.33 239.45 151.76 161.62 123.44 98.17 176.67"/><polygon class="cls-4" points="105.88 179.48 118.83 252.97 188.96 278.49 246.12 230.52 233.17 157.03 163.04 131.51 105.88 179.48"/><polygon class="cls-4" points="113.18 182.14 124.79 247.97 187.61 270.83 238.82 227.86 227.21 162.03 164.39 139.17 113.18 182.14"/><polygon class="cls-4" points="119.4 184.4 129.86 243.72 186.46 264.32 232.6 225.6 222.14 166.28 165.54 145.68 119.4 184.4"/><polygon class="cls-4" points="125.67 186.68 134.97 239.43 185.3 257.74 226.33 223.32 217.03 170.57 166.7 152.26 125.67 186.68"/><polygon class="cls-4" points="130.66 188.5 139.03 236.02 184.38 252.52 221.34 221.5 212.97 173.98 167.62 157.48 130.66 188.5"/><polygon class="cls-4" points="135.38 190.22 142.89 232.78 183.51 247.57 216.62 219.78 209.11 177.22 168.49 162.43 135.38 190.22"/><polygon class="cls-4" points="139.4 191.68 146.16 230.03 182.76 243.36 212.6 218.32 205.84 179.97 169.24 166.64 139.4 191.68"/><polygon class="cls-4" points="144.87 193.67 150.62 226.29 181.75 237.63 207.13 216.33 201.38 183.71 170.25 172.37 144.87 193.67"/><polygon class="cls-4" points="148.25 194.77 153.43 224.17 181.48 234.38 204.35 215.19 199.16 185.8 171.11 175.59 148.25 194.77"/><polygon class="cls-4" points="151.17 195.84 155.81 222.17 180.94 231.32 201.42 214.13 196.78 187.8 171.65 178.65 151.17 195.84"/><polygon class="cls-4" points="153.66 196.74 157.84 220.47 180.48 228.71 198.94 213.22 194.75 189.5 172.11 181.26 153.66 196.74"/><polygon class="cls-4" points="156.17 197.66 159.89 218.75 180.02 226.08 196.43 212.31 192.71 191.21 172.58 183.89 156.17 197.66"/><polygon class="cls-4" points="158.16 198.38 161.51 217.39 179.65 223.99 194.44 211.59 191.08 192.58 172.94 185.97 158.16 198.38"/><polygon class="cls-4" points="160.05 199.07 163.05 216.1 179.3 222.01 192.54 210.9 189.54 193.87 173.29 187.96 160.05 199.07"/><polygon class="cls-4" points="161.66 199.66 164.36 215 179 220.33 190.94 210.31 188.23 194.97 173.59 189.64 161.66 199.66"/><polygon class="cls-4" points="163.11 200.31 165.49 213.82 178.38 218.51 188.89 209.69 186.51 196.18 173.62 191.49 163.11 200.31"/><polygon class="cls-4" points="164.38 200.77 166.53 212.95 178.15 217.17 187.62 209.23 185.47 197.05 173.85 192.83 164.38 200.77"/><polygon class="cls-4" points="165.59 201.21 167.52 212.12 177.92 215.91 186.41 208.79 184.48 197.88 174.08 194.09 165.59 201.21"/><polygon class="cls-4" points="166.63 201.59 168.36 211.41 177.73 214.82 185.38 208.41 183.64 198.59 174.27 195.18 166.63 201.59"/><polygon class="cls-4" points="167.66 201.97 169.2 210.7 177.54 213.74 184.34 208.03 182.8 199.3 174.46 196.26 167.66 201.97"/><polygon class="cls-4" points="168.49 202.27 169.88 210.14 177.39 212.87 183.51 207.73 182.12 199.86 174.61 197.13 168.49 202.27"/><polygon class="cls-4" points="169.27 202.55 170.51 209.6 177.24 212.05 182.73 207.45 181.49 200.4 174.76 197.95 169.27 202.55"/><polygon class="cls-4" points="169.94 202.79 171.06 209.15 177.12 211.35 182.06 207.21 180.94 200.85 174.88 198.65 169.94 202.79"/><polygon class="cls-4" points="22.79 76.44 -11.94 273.4 141.27 401.96 329.21 333.56 363.94 136.6 210.73 8.04 22.79 76.44"/><polygon class="cls-4" points="39.67 89.68 8.38 267.15 146.42 382.99 315.76 321.35 347.06 143.89 209.01 28.05 39.67 89.68"/><polygon class="cls-4" points="54.06 101.75 26.03 260.73 149.69 364.49 301.38 309.28 329.41 150.31 205.75 46.55 54.06 101.75"/><polygon class="cls-4" points="66.3 112.03 41.04 255.26 152.46 348.76 289.14 299.01 314.4 155.77 202.98 62.28 66.3 112.03"/><polygon class="cls-4" points="78.65 122.39 56.19 249.75 155.26 332.88 276.79 288.65 299.25 161.29 200.18 78.16 78.65 122.39"/><polygon class="cls-4" points="88.45 130.62 68.22 245.37 157.48 320.27 266.98 280.42 287.22 165.67 197.95 90.76 88.45 130.62"/><polygon class="cls-4" points="97.76 138.42 79.63 241.22 159.59 308.32 257.68 272.62 275.81 169.82 195.84 102.72 97.76 138.42"/><polygon class="cls-4" points="105.67 145.06 89.34 237.69 161.39 298.14 249.77 265.98 266.1 173.35 194.05 112.9 105.67 145.06"/><polygon class="cls-4" points="112.56 151.76 98.17 233.33 161.62 286.56 239.44 258.24 253.83 176.67 190.38 123.44 112.56 151.76"/><polygon class="cls-4" points="118.83 157.03 105.88 230.52 163.04 278.49 233.16 252.97 246.13 179.48 188.96 131.51 118.83 157.03"/><polygon class="cls-4" points="124.79 162.03 113.18 227.86 164.39 270.83 227.21 247.97 238.82 182.14 187.61 139.17 124.79 162.03"/><polygon class="cls-4" points="129.86 166.28 119.4 225.6 165.54 264.32 222.14 243.72 232.6 184.4 186.46 145.68 129.86 166.28"/><polygon class="cls-4" points="134.97 170.57 125.67 223.32 166.7 257.74 217.03 239.43 226.33 186.68 185.3 152.26 134.97 170.57"/><polygon class="cls-4" points="139.03 173.98 130.66 221.5 167.62 252.52 212.97 236.02 221.34 188.5 184.38 157.48 139.03 173.98"/><polygon class="cls-4" points="142.89 177.21 135.38 219.78 168.49 247.57 209.11 232.79 216.62 190.22 183.51 162.43 142.89 177.21"/><polygon class="cls-4" points="146.16 179.97 139.4 218.32 169.24 243.36 205.84 230.03 212.6 191.68 182.76 166.64 146.16 179.97"/><polygon class="cls-4" points="150.62 183.71 144.87 216.33 170.25 237.63 201.38 226.29 207.13 193.67 181.75 172.38 150.62 183.71"/><polygon class="cls-4" points="153.42 185.9 148.24 215.29 171.1 234.48 199.15 224.27 204.33 194.88 181.47 175.69 153.42 185.9"/><polygon class="cls-4" points="155.8 187.9 151.16 214.23 171.64 231.42 196.77 222.27 201.41 195.94 180.93 178.75 155.8 187.9"/><polygon class="cls-4" points="157.83 189.6 153.65 213.33 172.1 228.81 194.74 220.57 198.92 196.85 180.47 181.36 157.83 189.6"/><polygon class="cls-4" points="159.87 191.32 156.15 212.41 172.56 226.18 192.69 218.86 196.41 197.76 180 183.99 159.87 191.32"/><polygon class="cls-4" points="161.5 192.68 158.15 211.69 172.93 224.09 191.07 217.49 194.42 198.49 179.64 186.08 161.5 192.68"/><polygon class="cls-4" points="163.04 193.97 160.04 211 173.28 222.11 189.53 216.2 192.53 199.17 179.29 188.06 163.04 193.97"/><polygon class="cls-4" points="164.35 195.07 161.65 210.41 173.58 220.43 188.22 215.1 190.92 199.76 178.99 189.74 164.35 195.07"/><polygon class="cls-4" points="165.49 196.18 163.11 209.69 173.62 218.51 186.51 213.82 188.89 200.31 178.38 191.49 165.49 196.18"/><polygon class="cls-4" points="166.53 197.05 164.38 209.23 173.85 217.17 185.47 212.95 187.62 200.77 178.15 192.83 166.53 197.05"/><polygon class="cls-4" points="167.52 197.88 165.59 208.79 174.08 215.91 184.48 212.12 186.41 201.21 177.92 194.09 167.52 197.88"/><polygon class="cls-4" points="168.36 198.59 166.63 208.41 174.27 214.82 183.64 211.41 185.38 201.59 177.73 195.18 168.36 198.59"/><polygon class="cls-4" points="169.2 199.3 167.66 208.03 174.46 213.74 182.8 210.7 184.34 201.97 177.54 196.26 169.2 199.3"/><polygon class="cls-4" points="169.88 199.86 168.49 207.73 174.61 212.87 182.12 210.14 183.51 202.27 177.39 197.13 169.88 199.86"/><polygon class="cls-4" points="170.51 200.4 169.27 207.45 174.76 212.05 181.49 209.6 182.73 202.55 177.24 197.95 170.51 200.4"/><polygon class="cls-4" points="171.06 200.85 169.94 207.21 174.88 211.35 180.94 209.15 182.06 202.79 177.12 198.65 171.06 200.85"/></g></g><g id="Layer_2" data-name="Layer 2"><g class="cls-5"><rect class="cls-6" x="5" y="107" width="342" height="73"/></g><text class="cls-7" transform="translate(47.82 170.3)">moire</text></g></svg>